<svg xmlns="http://www.w3.org/2000/svg" fill="none" viewBox="0 0 1090 240"><path fill="#303038" d="M127.35 233.39h351.63c71.5 0 122.68-47.23 122.68-113.3 0-66.25-51.01-113.48-122.68-113.48H127.35C55.7 6.61 6.61 53.84 6.61 120.1c0 66.07 49.25 113.3 120.74 113.3Z"/><path fill="#FC0" d="M960.97 6.61H478.98c71.67 0 122.68 47.23 122.68 113.48 0 66.07-51.19 113.3-122.68 113.3h482c71.48 0 122.41-47.23 122.41-113.3 0-66.25-50.75-113.48-122.42-113.48Z"/><path fill="#fff" d="M514.18 148.46c-13.94 0-23.47-10.4-23.47-25.55s9.53-25.55 23.47-25.55c14.3 0 23.48 10.04 23.48 25.55 0 15.15-9.53 25.55-23.48 25.55Zm0 23.43c28.42 0 49.08-20.61 49.08-48.98 0-28.55-20.48-48.99-49.08-48.99-28.24 0-49.07 20.8-49.07 48.99 0 28.2 20.83 48.98 49.07 48.98Zm-202.11-2.64h25.6v-60.97c3.35-6.52 10.23-11.1 17.12-11.1 9 0 15.35 7.05 15.35 17.27v54.8h25.6v-60.97c2.82-6.52 10.06-11.1 17.3-11.1 9 0 15 7.05 15 17.27v54.8h25.6v-59.56c0-21.84-14.12-35.76-36.01-35.76-11.48 0-20.83 4.22-28.42 13.56-6-8.98-15-13.56-26.3-13.56s-21.01 4.75-26.84 12.86v-10.4h-24v92.86Zm-158.34 0h25.6v-60.97c3.35-6.52 10.23-11.1 17.12-11.1 9 0 15.35 7.05 15.35 17.27v54.8h25.6v-60.97c2.83-6.52 10.06-11.1 17.3-11.1 9 0 15 7.05 15 17.27v54.8h25.6v-59.56c0-21.84-14.12-35.76-36.01-35.76-11.48 0-20.83 4.22-28.42 13.56-6-8.98-15-13.56-26.3-13.56s-21 4.75-26.83 12.86v-10.4h-24.01v92.86ZM122.66 67.58c8.48 0 15.18-6.7 15.18-14.62a15.14 15.14 0 0 0-4.44-10.72 15.2 15.2 0 0 0-10.74-4.44 15.1 15.1 0 0 0-15.35 15.16c0 8.1 6.7 14.62 15.35 14.62Zm-12.88 101.67h25.6V76.39h-25.6v92.86Z"/><path fill="#303038" fill-rule="evenodd" d="M909.77 137.89c0 6.52 2.82 9.7 8.65 9.7a17.9 17.9 0 0 0 7.24-1.6l3.17 21.33c-4.59 2.11-10.23 3.17-16.24 3.17-18 0-28.95-10.75-28.95-28.9v-95.5h26.13v91.8Zm-197.88-61.5 21.31 54.9 17.34-54.9h25.95l-30.18 92.85h-25.77l-21.77-58.1-21.3 58.1H651.7l-30.54-92.86h27.36l17.25 55.1L687 76.38h24.89Zm282.6 66.96a24.92 24.92 0 0 1-13.94 4.23c-8.12 0-12.88-4.4-12.88-11.8V99.11h31.6V76.4h-31.6V54.02h-26.13v22.37H923.9v22.73h17.65v38.94c0 20.8 13.77 33.84 35.66 33.84 10.06 0 18.71-2.47 26.48-7.58l-9.18-20.97Zm-216.93-20.44c0-28.19 20.65-48.8 48.54-48.8 27.18 0 45.01 19.02 45.01 48.45 0 3.17 0 6.34-.35 8.81H802.9c2.85 11.47 11.68 18.5 23.9 18.5 9.18 0 16.42-3.88 21.01-11.1l17.83 14.27c-7.77 11.63-21.89 18.86-38.66 18.86-28.42 0-49.42-20.97-49.42-48.99Zm68.49-10.22c-2.03-10.66-9.77-17.09-20.48-17.09-10.76 0-19 6.61-22.2 17.1h42.68Z" clip-rule="evenodd"/><path fill="#fff" fill-rule="evenodd" d="M960.7 240H127.36c-37.22 0-69.1-12.31-91.72-33.67C13 184.92 0 154.82 0 120.08 0 85.26 12.93 55.12 35.56 33.7 58.16 12.3 90.05 0 127.36 0H960.7c74.83 0 129.3 49.7 129.3 120.09C1090 190.3 1035.34 240 960.7 240Zm0-6.61H127.36c-71.49 0-120.74-47.23-120.74-113.3C6.61 53.84 55.68 6.6 127.35 6.6h833.36c71.66 0 122.68 47.23 122.68 113.48 0 66.07-51.19 113.3-122.68 113.3Z" clip-rule="evenodd"/></svg>